<?xml version="1.0" encoding="utf-8"?>
<!-- Generator: Adobe Illustrator 16.0.0, SVG Export Plug-In . SVG Version: 6.00 Build 0)  -->
<!DOCTYPE svg PUBLIC "-//W3C//DTD SVG 1.1//EN" "http://www.w3.org/Graphics/SVG/1.1/DTD/svg11.dtd">
<svg version="1.1"
	 id="svg4423" xmlns:dc="http://purl.org/dc/elements/1.1/" xmlns:cc="http://creativecommons.org/ns#" xmlns:rdf="http://www.w3.org/1999/02/22-rdf-syntax-ns#" xmlns:svg="http://www.w3.org/2000/svg" xmlns:sodipodi="http://sodipodi.sourceforge.net/DTD/sodipodi-0.dtd" xmlns:inkscape="http://www.inkscape.org/namespaces/inkscape" inkscape:version="0.48.1 r9760" sodipodi:docname="10H.svg"
	 xmlns="http://www.w3.org/2000/svg" xmlns:xlink="http://www.w3.org/1999/xlink" x="0px" y="0px" width="744.094px"
	 height="1052.363px" viewBox="0 0 744.094 1052.363" enable-background="new 0 0 744.094 1052.363" xml:space="preserve">
<sodipodi:namedview  showgrid="false" inkscape:cy="451.52252" inkscape:cx="126.73995" inkscape:zoom="0.69999999" borderopacity="1.0" bordercolor="#666666" pagecolor="#ffffff" id="base" inkscape:window-maximized="0" inkscape:window-y="60" inkscape:window-x="705" inkscape:window-height="925" inkscape:current-layer="layer1" inkscape:pageshadow="2" inkscape:pageopacity="0.0" inkscape:window-width="735" inkscape:snap-page="true" inkscape:document-units="px" inkscape:snap-global="true" inkscape:snap-bbox="true">
	</sodipodi:namedview>
<g id="layer1" inkscape:label="10H" inkscape:groupmode="layer">
	<g id="g8970" transform="translate(-1760.0774,-113.66123)">
		<g id="g8891">
			<g id="g8795" transform="translate(-4683.8753,2918.9368)">
				<path id="rect6365" fill="#FFFFFF" stroke="#000000" stroke-width="0.9967" d="M6488.896-2784.095h654.209
					c19.018,0,34.429,15.415,34.429,34.432v941.139c0,19.018-15.411,34.429-34.429,34.429h-654.209
					c-19.016,0-34.432-15.411-34.432-34.429v-941.139C6454.465-2768.681,6469.881-2784.095,6488.896-2784.095z"/>
				<g id="g8612" transform="matrix(0.30106207,0,0,0.30106207,5267.5599,-1982.7028)">
					<path id="path7216" inkscape:connector-curvature="0" sodipodi:nodetypes="ccccc" fill="#D40000" d="M4024.468-2174.016
						v-338.986h33.469v338.986H4024.468z"/>
					<path id="rect7235" inkscape:connector-curvature="0" fill="#D40000" d="M4157.124-2513.002
						c-32.215,0-58.115,28.905-58.115,64.797v209.392c0,35.892,25.899,64.797,58.115,64.797h18.774
						c32.215,0,58.167-28.905,58.167-64.797v-209.392c0-35.892-25.951-64.797-58.167-64.797H4157.124z M4166.815-2480.967
						c19.028,0,34.336,14.384,34.336,32.299v212.197c0,17.915-15.309,32.351-34.336,32.351c-19.022,0-34.336-14.436-34.336-32.351
						v-212.197C4132.479-2466.583,4147.793-2480.967,4166.815-2480.967z"/>
					<g id="g7984" transform="matrix(-0.50404239,0,0,-0.50404239,7403.6384,312.07817)">
						<path id="path7986" inkscape:connector-curvature="0" sodipodi:nodetypes="ccccc" fill="#D40000" d="M2264.842,212.342
							v-672.554h66.414v672.554H2264.842z"/>
						<path id="path7988" inkscape:connector-curvature="0" fill="#D40000" d="M2528.031-460.212
							c-63.91,0-115.271,57.365-115.271,128.573V83.769c0,71.208,51.361,128.573,115.271,128.573h37.274
							c63.911,0,115.4-57.365,115.4-128.573v-415.407c0-71.208-51.49-128.573-115.4-128.573H2528.031z M2547.254-396.636
							c37.77,0,68.164,28.56,68.164,64.084V88.434c0,35.524-30.395,64.168-68.164,64.168c-37.731,0-68.125-28.644-68.125-64.168
							v-420.986C2479.128-368.076,2509.523-396.636,2547.254-396.636z"/>
					</g>
				</g>
			</g>
		</g>
		<path id="path8644" inkscape:connector-curvature="0" sodipodi:nodetypes="cccccccc" fill="#D40000" d="M1798.201,329.643
			c-5.128-11.249-5.691-30.465,9.624-33.065c11.538-1.483,16.234,3.881,17.167,12.122c0.46,2.407,1.82,2.553,2.25-0.19
			c0.663-8.452,9.028-13.387,15.569-12.146c17.901,3.062,16.857,22.766,11.008,36.133c-8.846,17.749-18.141,28.95-26.708,46.813
			C1817.272,360.713,1806.035,345.605,1798.201,329.643L1798.201,329.643z"/>
		<path id="path8568" inkscape:connector-curvature="0" sodipodi:nodetypes="ccccsccssc" fill="#D40000" d="M1909.961,226.585
			c23.139-1.538,35.204,18.229,37.557,33.805c1.405,2.474,2.173,1.778,2.711-0.136c1.133-20.001,19.03-36.346,35.608-34.109
			c26.975,0.352,43.37,30.367,38.759,55.774c-5.63,31.034-22.348,49.723-35.007,68.971c-14.322,19.928-33.6,48.713-39.81,62.569
			c0,0-19.591-29.813-45.079-64.878c-17.043-23.446-30.687-48.854-31.955-70.727C1871.294,252.862,1881.554,230.46,1909.961,226.585
			L1909.961,226.585z"/>
		<path id="path8570" inkscape:connector-curvature="0" sodipodi:nodetypes="ccccsccssc" fill="#D40000" d="M2091.945,332.392
			c23.142-1.534,35.205,18.229,37.56,33.805c1.403,2.477,2.172,1.778,2.711-0.136c1.131-19.998,19.028-36.342,35.604-34.109
			c26.977,0.351,43.375,30.37,38.763,55.774c-5.631,31.038-22.349,49.727-35.008,68.972c-14.319,19.928-33.597,48.717-39.809,62.572
			c0,0-19.591-29.817-45.081-64.881c-17.043-23.446-30.683-48.853-31.953-70.727C2053.281,358.669,2063.54,336.267,2091.945,332.392
			L2091.945,332.392z"/>
		<path id="path8572" inkscape:connector-curvature="0" sodipodi:nodetypes="ccccsccssc" fill="#D40000" d="M2271.233,226.585
			c23.142-1.538,35.206,18.229,37.56,33.805c1.404,2.474,2.17,1.778,2.708-0.136c1.133-20.001,19.03-36.346,35.605-34.109
			c26.976,0.352,43.374,30.367,38.763,55.774c-5.631,31.034-22.346,49.723-35.005,68.971c-14.323,19.928-33.6,48.713-39.812,62.569
			c0,0-19.593-29.813-45.082-64.878c-17.044-23.446-30.684-48.854-31.949-70.727C2232.565,252.862,2242.827,230.46,2271.233,226.585
			L2271.233,226.585z"/>
		<path id="path8574" inkscape:connector-curvature="0" sodipodi:nodetypes="ccccsccssc" fill="#D40000" d="M2271.233,438.202
			c23.142-1.538,35.206,18.227,37.56,33.805c1.404,2.474,2.17,1.775,2.708-0.139c1.133-19.998,19.03-36.342,35.605-34.109
			c26.976,0.351,43.374,30.37,38.763,55.774c-5.631,31.038-22.346,49.726-35.005,68.971c-14.323,19.932-33.6,48.717-39.812,62.572
			c0,0-19.593-29.813-45.082-64.878c-17.044-23.449-30.684-48.856-31.949-70.73C2232.565,464.479,2242.827,442.074,2271.233,438.202
			L2271.233,438.202z"/>
		<path id="path8576" inkscape:connector-curvature="0" sodipodi:nodetypes="ccccsccssc" fill="#D40000" d="M1909.961,438.202
			c23.139-1.538,35.204,18.227,37.557,33.805c1.405,2.474,2.173,1.775,2.711-0.139c1.133-19.998,19.03-36.342,35.608-34.109
			c26.975,0.351,43.37,30.37,38.759,55.774c-5.63,31.038-22.348,49.726-35.007,68.971c-14.322,19.932-33.6,48.717-39.81,62.572
			c0,0-19.591-29.813-45.079-64.878c-17.043-23.449-30.687-48.856-31.955-70.73C1871.294,464.479,1881.554,442.074,1909.961,438.202
			L1909.961,438.202z"/>
		<path id="path8596" inkscape:connector-curvature="0" sodipodi:nodetypes="ccccsccssc" fill="#D40000" d="M2271.233,841.121
			c23.142,1.537,35.206-18.227,37.56-33.809c1.404-2.474,2.17-1.778,2.708,0.139c1.133,19.998,19.03,36.346,35.605,34.106
			c26.976-0.348,43.374-30.367,38.763-55.774c-5.631-31.031-22.346-49.72-35.005-68.971c-14.323-19.929-33.6-48.714-39.812-62.569
			c0,0-19.593,29.817-45.082,64.878c-17.044,23.446-30.684,48.859-31.949,70.73C2232.565,814.84,2242.827,837.249,2271.233,841.121
			L2271.233,841.121z"/>
		<path id="path8598" inkscape:connector-curvature="0" sodipodi:nodetypes="ccccsccssc" fill="#D40000" d="M2271.233,1052.007
			c23.142,1.537,35.206-18.227,37.56-33.809c1.404-2.474,2.17-1.778,2.708,0.139c1.133,19.998,19.03,36.346,35.605,34.106
			c26.976-0.349,43.374-30.367,38.763-55.774c-5.631-31.031-22.346-49.72-35.005-68.972c-14.323-19.928-33.6-48.713-39.812-62.568
			c0,0-19.593,29.816-45.082,64.878c-17.044,23.446-30.684,48.853-31.949,70.73
			C2232.565,1025.727,2242.827,1048.135,2271.233,1052.007L2271.233,1052.007z"/>
		<path id="path8600" inkscape:connector-curvature="0" sodipodi:nodetypes="ccccsccssc" fill="#D40000" d="M2090.432,946.564
			c23.141,1.537,35.205-18.227,37.559-33.809c1.405-2.474,2.173-1.778,2.711,0.139c1.132,19.998,19.032,36.346,35.607,34.106
			c26.977-0.348,43.368-30.367,38.762-55.774c-5.63-31.031-22.351-49.72-35.01-68.971c-14.323-19.929-33.601-48.714-39.808-62.569
			c0,0-19.593,29.816-45.081,64.878c-17.044,23.446-30.685,48.859-31.954,70.73C2051.766,920.284,2062.024,942.692,2090.432,946.564
			L2090.432,946.564z"/>
		<path id="path8602" inkscape:connector-curvature="0" sodipodi:nodetypes="ccccsccssc" fill="#D40000" d="M1909.961,841.121
			c23.139,1.537,35.204-18.227,37.557-33.809c1.405-2.474,2.173-1.778,2.711,0.139c1.133,19.998,19.03,36.346,35.608,34.106
			c26.975-0.348,43.37-30.367,38.759-55.774c-5.63-31.031-22.348-49.72-35.007-68.971c-14.322-19.929-33.6-48.714-39.81-62.569
			c0,0-19.591,29.817-45.079,64.878c-17.043,23.446-30.687,48.859-31.955,70.73C1871.294,814.84,1881.554,837.249,1909.961,841.121
			L1909.961,841.121z"/>
		<path id="path8604" inkscape:connector-curvature="0" sodipodi:nodetypes="ccccsccssc" fill="#D40000" d="M1909.961,1052.007
			c23.139,1.537,35.204-18.227,37.557-33.809c1.405-2.474,2.173-1.778,2.711,0.139c1.133,19.998,19.03,36.346,35.608,34.106
			c26.975-0.349,43.37-30.367,38.759-55.774c-5.63-31.031-22.348-49.72-35.007-68.972c-14.322-19.928-33.6-48.713-39.81-62.568
			c0,0-19.591,29.816-45.079,64.878c-17.043,23.446-30.687,48.853-31.955,70.73
			C1871.294,1025.727,1881.554,1048.135,1909.961,1052.007L1909.961,1052.007z"/>
		<path id="path8660" inkscape:connector-curvature="0" sodipodi:nodetypes="cccccccc" fill="#D40000" d="M2409.801,947.861
			c-5.124,11.248-5.688,30.462,9.629,33.062c11.533,1.487,16.233-3.878,17.163-12.115c0.463-2.41,1.822-2.556,2.253,0.184
			c0.657,8.452,9.027,13.387,15.569,12.147c17.897-3.062,16.854-22.763,11.008-36.131c-8.851-17.752-18.145-28.95-26.71-46.815
			C2428.875,916.792,2417.633,931.899,2409.801,947.861L2409.801,947.861z"/>
	</g>
</g>
</svg>
