<?xml version="1.0" encoding="utf-8"?>
<!-- Generator: Adobe Illustrator 16.0.0, SVG Export Plug-In . SVG Version: 6.00 Build 0)  -->
<!DOCTYPE svg PUBLIC "-//W3C//DTD SVG 1.1//EN" "http://www.w3.org/Graphics/SVG/1.1/DTD/svg11.dtd">
<svg version="1.1"
	 id="svg4423" xmlns:dc="http://purl.org/dc/elements/1.1/" xmlns:cc="http://creativecommons.org/ns#" xmlns:rdf="http://www.w3.org/1999/02/22-rdf-syntax-ns#" xmlns:svg="http://www.w3.org/2000/svg" xmlns:sodipodi="http://sodipodi.sourceforge.net/DTD/sodipodi-0.dtd" xmlns:inkscape="http://www.inkscape.org/namespaces/inkscape" inkscape:version="0.48.1 r9760" sodipodi:docname="2H.svg"
	 xmlns="http://www.w3.org/2000/svg" xmlns:xlink="http://www.w3.org/1999/xlink" x="0px" y="0px" width="744.094px"
	 height="1052.363px" viewBox="0 0 744.094 1052.363" enable-background="new 0 0 744.094 1052.363" xml:space="preserve">
<sodipodi:namedview  showgrid="false" inkscape:cy="492.08587" inkscape:cx="248.48484" inkscape:zoom="0.98994948" borderopacity="1.0" bordercolor="#666666" pagecolor="#ffffff" id="base" inkscape:window-maximized="0" inkscape:window-y="42" inkscape:window-x="935" inkscape:window-height="925" inkscape:current-layer="layer1" inkscape:pageshadow="2" inkscape:pageopacity="0.0" inkscape:window-width="690" inkscape:snap-page="true" inkscape:document-units="px" inkscape:snap-global="true" inkscape:snap-bbox="true">
	</sodipodi:namedview>
<g id="layer1" inkscape:label="2H" inkscape:groupmode="layer">
	<g id="g8900" transform="translate(-1313.6208,198.14981)">
		<g id="g8879" transform="translate(-4683.8753,2918.9368)">
			<path id="rect6347" fill="#FFFFFF" stroke="#000000" stroke-width="0.9967" d="M6042.441-3095.905h654.203
				c19.018,0,34.435,15.418,34.435,34.432v941.134c0,19.018-15.417,34.435-34.435,34.435h-654.203
				c-19.016,0-34.432-15.417-34.432-34.435v-941.134C6008.01-3080.487,6023.426-3095.905,6042.441-3095.905z"/>
		</g>
		<g id="g6564" transform="translate(-0.13622252,4.5315816e-5)">
			<path id="path8628" inkscape:connector-curvature="0" sodipodi:nodetypes="cccccccc" fill="#D40000" d="M1353.68,18.129
				c-5.127-11.245-5.69-30.465,9.625-33.065c11.538-1.483,16.233,3.881,17.167,12.122c0.46,2.407,1.82,2.553,2.25-0.19
				c0.663-8.452,9.028-13.387,15.569-12.147c17.901,3.062,16.855,22.766,11.008,36.137c-8.846,17.746-18.141,28.95-26.707,46.81
				C1372.751,49.198,1361.514,34.091,1353.68,18.129L1353.68,18.129z"/>
			<g id="g6555">
				<path id="path8650" inkscape:connector-curvature="0" sodipodi:nodetypes="cccccccc" fill="#D40000" d="M1961.743,637.684
					c-5.131,11.249-5.693,30.469,9.623,33.062c11.539,1.486,16.233-3.878,17.17-12.115c0.455-2.41,1.815-2.556,2.245,0.184
					c0.665,8.452,9.028,13.387,15.57,12.146c17.903-3.062,16.859-22.763,11.008-36.13c-8.845-17.752-18.139-28.95-26.704-46.815
					C1980.812,606.615,1969.575,621.723,1961.743,637.684L1961.743,637.684z"/>
				<g id="g6548">
					<g id="g8574" transform="matrix(0.30106207,0,0,0.30106207,995.9849,969.13578)">
						<path id="path7100" inkscape:connector-curvature="0" sodipodi:nodetypes="csscscccsccccccc" fill="#D40000" d="
							M1178.368-3305.106l1.769-21.717c5.485-67.129,20.168-89.792,103.525-159.831c40.451-33.978,53.731-50.748,55.602-70.217
							c5.279-45.831-36.054-60.14-62.995-60.393c-34.883-0.326-74.341,20.562-55.528,69.009l-39.129,11.484
							c-7.895-45.19,0.185-87.595,36.854-106.423c48.915-24.534,111.683-14.91,143.35,23.734
							c21.282,25.974,26.12,61.822,14.715,89.897c-33.359,71.784-146.55,103.356-155.906,186.339h125.143v-46.208h36.857v85.073
							L1178.368-3305.106z"/>
						<path id="path7116" inkscape:connector-curvature="0" sodipodi:nodetypes="csscscccsccccccc" fill="#D40000" d="
							M3401.272-953.846l-1.764,21.707c-5.485,67.119-20.176,89.793-103.537,159.831c-40.452,33.978-53.732,50.748-55.601,70.207
							c-5.274,45.831,36.057,60.161,62.996,60.414c34.883,0.315,74.349-20.572,55.52-69.01l39.129-11.493
							c7.898,45.179-0.169,87.603-36.839,106.433c-48.918,24.523-111.688,14.898-143.356-23.747
							c-21.285-25.969-26.118-61.819-14.707-89.897c33.349-71.78,146.548-103.365,155.9-186.346h-125.136v46.207h-36.858v-85.063
							L3401.272-953.846z"/>
					</g>
					<path id="path8514" inkscape:connector-curvature="0" sodipodi:nodetypes="ccccsccssc" fill="#D40000" d="M1646.659-86.384
						c23.141-1.537,35.204,18.23,37.559,33.806c1.403,2.474,2.171,1.777,2.71-0.136c1.131-20.001,19.032-36.345,35.607-34.109
						c26.976,0.351,43.367,30.367,38.762,55.774c-5.634,31.034-22.352,49.722-35.011,68.971
						c-14.319,19.928-33.6,48.713-39.808,62.568c0,0-19.593-29.813-45.08-64.877c-17.043-23.446-30.685-48.853-31.955-70.727
						C1607.993-60.107,1618.251-82.509,1646.659-86.384L1646.659-86.384z"/>
					<path id="path8580" inkscape:connector-curvature="0" sodipodi:nodetypes="ccccsccssc" fill="#D40000" d="M1646.659,743.81
						c23.141,1.538,35.204-18.226,37.559-33.802c1.403-2.48,2.171-1.777,2.71,0.133c1.131,19.998,19.032,36.346,35.607,34.112
						c26.976-0.354,43.367-30.373,38.762-55.774c-5.634-31.037-22.352-49.726-35.011-68.971
						c-14.319-19.928-33.6-48.72-39.808-62.574c0,0-19.593,29.816-45.08,64.884c-17.043,23.445-30.685,48.853-31.955,70.724
						C1607.993,717.536,1618.251,739.938,1646.659,743.81L1646.659,743.81z"/>
				</g>
			</g>
		</g>
	</g>
</g>
</svg>
