<?xml version="1.0" encoding="utf-8"?>
<!-- Generator: Adobe Illustrator 16.0.0, SVG Export Plug-In . SVG Version: 6.00 Build 0)  -->
<!DOCTYPE svg PUBLIC "-//W3C//DTD SVG 1.1//EN" "http://www.w3.org/Graphics/SVG/1.1/DTD/svg11.dtd">
<svg version="1.1"
	 id="svg4423" xmlns:dc="http://purl.org/dc/elements/1.1/" xmlns:cc="http://creativecommons.org/ns#" xmlns:rdf="http://www.w3.org/1999/02/22-rdf-syntax-ns#" xmlns:svg="http://www.w3.org/2000/svg" xmlns:sodipodi="http://sodipodi.sourceforge.net/DTD/sodipodi-0.dtd" xmlns:inkscape="http://www.inkscape.org/namespaces/inkscape" inkscape:version="0.48.1 r9760" sodipodi:docname="3H.svg"
	 xmlns="http://www.w3.org/2000/svg" xmlns:xlink="http://www.w3.org/1999/xlink" x="0px" y="0px" width="744.094px"
	 height="1052.363px" viewBox="0 0 744.094 1052.363" enable-background="new 0 0 744.094 1052.363" xml:space="preserve">
<sodipodi:namedview  showgrid="false" inkscape:cy="436.29345" inkscape:cx="190.96525" inkscape:zoom="0.98994948" borderopacity="1.0" bordercolor="#666666" pagecolor="#ffffff" id="base" inkscape:window-maximized="0" inkscape:window-y="117" inkscape:window-x="1078" inkscape:window-height="925" inkscape:current-layer="layer1" inkscape:pageshadow="2" inkscape:pageopacity="0.0" inkscape:window-width="735" inkscape:snap-page="true" inkscape:document-units="px" inkscape:snap-global="true" inkscape:snap-bbox="true">
	</sodipodi:namedview>
<g id="layer1" inkscape:label="3H" inkscape:groupmode="layer" sodipodi:insensitive="true">
	<g id="g8912" transform="translate(-1536.8493,198.14981)">
		<g id="g8784">
			<g id="g8890" transform="translate(-4683.8753,2918.9368)">
				<path id="rect6351" fill="#FFFFFF" stroke="#000000" stroke-width="0.9967" d="M6265.669-3095.905h654.203
					c19.018,0,34.435,15.418,34.435,34.432v941.134c0,19.018-15.417,34.435-34.435,34.435h-654.203
					c-19.016,0-34.432-15.417-34.432-34.435v-941.134C6231.238-3080.487,6246.654-3095.905,6265.669-3095.905z"/>
				<g id="g8582" transform="matrix(0.30106207,0,0,0.30106207,5635.595,-1948.9541)">
					<path id="path7102" inkscape:connector-curvature="0" sodipodi:nodetypes="ccccscccccccccccscc" fill="#D40000" d="
						M2069.376-3387.781l27.406-19.795c23.819,38.013,50.412,63.073,91.079,58.765c61.039-4.098,86.319-66.918,73.543-114.294
						c-12.341-42.436-62.894-63.146-103.056-40.482c-9.473,5.347-20.421,11.947-20.421,11.947l-14.3-23.304l94.289-109.682h-102.32
						v45.401h-39.265v-81.396h200.003V-3633c0,0-53.575,54.542-71.305,84.432c43.631,1.586,78.787,28.715,91.369,71.636
						c7.386,22.58,4.064,74.252-5.56,96.485c-16.07,37.131-60.077,67.244-100.293,68.988
						c-67.465,4.455-103.303-41.985-121.165-76.322H2069.376z"/>
					<path id="path7118" inkscape:connector-curvature="0" sodipodi:nodetypes="ccccscccccccccccscc" fill="#D40000" d="
						M4289.295-876.805l-27.423,19.793c-23.809-38.013-50.391-63.084-91.074-58.754c-61.043,4.097-86.302,66.908-73.525,114.293
						c12.336,42.428,62.893,63.149,103.05,40.475c9.456-5.339,20.426-10.928,20.426-10.928l16.916,21.872l-96.916,110.092h102.317
						v-45.389h39.274v81.388h-200.008v-27.614c0,0,53.563-54.55,71.3-84.434c-43.625-1.596-78.783-28.723-91.369-71.634
						c-7.376-22.589-4.055-74.262,5.569-96.494c16.053-37.131,60.077-67.246,100.277-68.988
						C4235.585-957.583,4271.412-911.143,4289.295-876.805L4289.295-876.805z"/>
				</g>
			</g>
		</g>
		<path id="path8630" inkscape:connector-curvature="0" sodipodi:nodetypes="cccccccc" fill="#D40000" d="M1578.92,19.533
			c-5.127-11.248-5.69-30.468,9.624-33.065c11.538-1.487,16.234,3.881,17.167,12.119c0.46,2.407,1.82,2.556,2.25-0.187
			c0.663-8.452,9.028-13.387,15.569-12.146c17.901,3.062,16.855,22.766,11.008,36.133c-8.846,17.749-18.141,28.95-26.707,46.812
			C1597.991,50.603,1586.754,35.495,1578.92,19.533L1578.92,19.533z"/>
		<path id="path8516" inkscape:connector-curvature="0" sodipodi:nodetypes="ccccsccssc" fill="#D40000" d="M1869.659-83.885
			c23.14-1.537,35.205,18.227,37.558,33.806c1.404,2.474,2.173,1.777,2.71-0.14c1.131-19.998,19.029-36.342,35.607-34.105
			c26.976,0.348,43.371,30.367,38.759,55.773c-5.631,31.035-22.345,49.723-35.004,68.971
			c-14.323,19.929-33.601,48.714-39.812,62.568c0,0-19.591-29.813-45.08-64.877c-17.043-23.446-30.685-48.853-31.953-70.729
			C1830.993-57.608,1841.253-80.01,1869.659-83.885L1869.659-83.885z"/>
		<path id="path8518" inkscape:connector-curvature="0" sodipodi:nodetypes="ccccsccssc" fill="#D40000" d="M1869.864,234.917
			c23.141-1.538,35.205,18.226,37.559,33.805c1.404,2.474,2.173,1.778,2.711-0.139c1.131-19.998,19.031-36.342,35.606-34.106
			c26.977,0.348,43.368,30.367,38.763,55.774c-5.631,31.034-22.352,49.724-35.011,68.969c-14.32,19.929-33.6,48.714-39.808,62.568
			c0,0-19.591-29.81-45.081-64.877c-17.043-23.446-30.685-48.852-31.953-70.728C1831.199,261.194,1841.459,238.792,1869.864,234.917
			L1869.864,234.917z"/>
		<path id="path8652" inkscape:connector-curvature="0" sodipodi:nodetypes="cccccccc" fill="#D40000" d="M2184.595,638.893
			c-5.124,11.248-5.688,30.468,9.622,33.068c11.54,1.48,16.234-3.885,17.17-12.122c0.462-2.41,1.816-2.556,2.253,0.19
			c0.657,8.452,9.027,13.38,15.562,12.146c17.904-3.062,16.86-22.769,11.015-36.137c-8.851-17.752-18.145-28.949-26.71-46.809
			C2203.669,607.823,2192.427,622.931,2184.595,638.893L2184.595,638.893z"/>
		<path id="path8582" inkscape:connector-curvature="0" sodipodi:nodetypes="ccccsccssc" fill="#D40000" d="M1869.659,740.786
			c23.14,1.537,35.205-18.227,37.558-33.803c1.404-2.479,2.173-1.777,2.71,0.134c1.131,19.997,19.029,36.345,35.607,34.111
			c26.976-0.354,43.371-30.373,38.759-55.773c-5.631-31.037-22.345-49.726-35.004-68.971c-14.323-19.929-33.601-48.72-39.812-62.575
			c0,0-19.591,29.816-45.08,64.884c-17.043,23.446-30.685,48.854-31.953,70.724C1830.993,714.512,1841.253,736.914,1869.659,740.786
			L1869.659,740.786z"/>
	</g>
</g>
</svg>
