<?xml version="1.0" encoding="utf-8"?>
<!-- Generator: Adobe Illustrator 16.0.0, SVG Export Plug-In . SVG Version: 6.00 Build 0)  -->
<!DOCTYPE svg PUBLIC "-//W3C//DTD SVG 1.1//EN" "http://www.w3.org/Graphics/SVG/1.1/DTD/svg11.dtd">
<svg version="1.1"
	 id="svg4423" xmlns:dc="http://purl.org/dc/elements/1.1/" xmlns:cc="http://creativecommons.org/ns#" xmlns:rdf="http://www.w3.org/1999/02/22-rdf-syntax-ns#" xmlns:svg="http://www.w3.org/2000/svg" xmlns:sodipodi="http://sodipodi.sourceforge.net/DTD/sodipodi-0.dtd" xmlns:inkscape="http://www.inkscape.org/namespaces/inkscape" inkscape:version="0.48.1 r9760" sodipodi:docname="4H.svg"
	 xmlns="http://www.w3.org/2000/svg" xmlns:xlink="http://www.w3.org/1999/xlink" x="0px" y="0px" width="744.094px"
	 height="1052.363px" viewBox="0 0 744.094 1052.363" enable-background="new 0 0 744.094 1052.363" xml:space="preserve">
<sodipodi:namedview  showgrid="false" inkscape:cy="483.12663" inkscape:cx="249.10806" inkscape:zoom="0.98994948" borderopacity="1.0" bordercolor="#666666" pagecolor="#ffffff" id="base" inkscape:window-maximized="0" inkscape:window-y="44" inkscape:window-x="577" inkscape:window-height="925" inkscape:current-layer="layer1" inkscape:pageshadow="2" inkscape:pageopacity="0.0" inkscape:window-width="735" inkscape:snap-page="true" inkscape:document-units="px" inkscape:snap-global="true" inkscape:snap-bbox="true">
	</sodipodi:namedview>
<g id="layer1" inkscape:label="4H" inkscape:groupmode="layer">
	<g id="g8925" transform="translate(-1760.0774,198.14981)">
		<g id="g8796">
			<g id="g8902" transform="translate(-4683.8753,2918.9368)">
				<path id="rect6353" fill="#FFFFFF" stroke="#000000" stroke-width="0.9967" d="M6488.898-3095.905h654.205
					c19.017,0,34.428,15.418,34.428,34.432v941.134c0,19.018-15.411,34.435-34.428,34.435h-654.205
					c-19.016,0-34.432-15.417-34.432-34.435v-941.134C6454.467-3080.487,6469.883-3095.905,6488.898-3095.905z"/>
				<g id="g8591" transform="matrix(0.30106207,0,0,0.30106207,5623.2929,-1949.6699)">
					<path id="path7104" inkscape:connector-curvature="0" sodipodi:nodetypes="cccccccccccccccccccc" fill="#D40000" d="
						M2952.704-3308.367v-30.27h27.812v-49.876h-139.063v-35.188l150.464-227.001l24.591,0.084v226.905h42.537v35.199h-42.537
						l-0.819,49.876h23.314v30.27H2952.704z M2980.515-3567.625l-95.534,143.924h95.534V-3567.625z"/>
					<path id="path7159" inkscape:connector-curvature="0" sodipodi:nodetypes="cccccccccccccccccccc" fill="#D40000" d="
						M4970.624-951.466v30.283h-27.802v49.863h139.068v35.201l-150.479,226.99l-24.584-0.084v-226.905h-42.532v-35.201h42.532
						l0.82-49.863h-23.306v-30.283H4970.624z M4942.822-692.198l95.528-143.921h-95.528V-692.198z"/>
				</g>
			</g>
		</g>
		<path id="path8638" inkscape:connector-curvature="0" sodipodi:nodetypes="cccccccc" fill="#D40000" d="M1798.954,20.603
			c-5.127-11.248-5.689-30.465,9.624-33.065c11.538-1.487,16.234,3.881,17.167,12.122c0.462,2.404,1.819,2.553,2.25-0.19
			c0.663-8.452,9.029-13.387,15.569-12.147c17.901,3.062,16.855,22.766,11.008,36.134c-8.846,17.749-18.141,28.95-26.707,46.812
			c-9.841-18.597-21.078-33.704-28.911-49.666H1798.954z"/>
		<path id="path8520" inkscape:connector-curvature="0" sodipodi:nodetypes="ccccsccssc" fill="#D40000" d="M1916.346-92.542
			c23.139-1.537,35.204,18.227,37.557,33.805c1.404,2.474,2.173,1.778,2.711-0.136c1.132-20.001,19.03-36.345,35.608-34.109
			c26.974,0.351,43.369,30.367,38.759,55.774c-5.631,31.034-22.348,49.722-35.007,68.971c-14.322,19.928-33.6,48.713-39.809,62.568
			c0,0-19.591-29.813-45.079-64.878c-17.043-23.445-30.687-48.853-31.955-70.726C1877.679-66.265,1887.938-88.667,1916.346-92.542
			L1916.346-92.542z"/>
		<path id="path8522" inkscape:connector-curvature="0" sodipodi:nodetypes="ccccsccssc" fill="#D40000" d="M2271.136-92.542
			c23.143-1.537,35.207,18.227,37.561,33.805c1.404,2.474,2.17,1.778,2.708-0.136c1.132-20.001,19.029-36.345,35.604-34.109
			c26.977,0.351,43.374,30.367,38.763,55.774c-5.631,31.034-22.346,49.722-35.005,68.971c-14.322,19.928-33.6,48.713-39.812,62.568
			c0,0-19.593-29.813-45.082-64.878c-17.044-23.445-30.684-48.853-31.949-70.726C2232.469-66.265,2242.731-88.667,2271.136-92.542
			L2271.136-92.542z"/>
		<path id="path8584" inkscape:connector-curvature="0" sodipodi:nodetypes="ccccsccssc" fill="#D40000" d="M1916.346,737.781
			c23.139,1.53,35.204-18.233,37.557-33.809c1.404-2.474,2.173-1.778,2.711,0.139c1.132,19.998,19.03,36.339,35.608,34.105
			c26.974-0.348,43.369-30.366,38.759-55.773c-5.631-31.037-22.348-49.726-35.007-68.971c-14.322-19.928-33.6-48.713-39.809-62.568
			c0,0-19.591,29.816-45.079,64.878c-17.043,23.445-30.687,48.853-31.955,70.729c-1.452,24.989,8.808,47.391,37.215,51.263V737.781z
			"/>
		<path id="path8586" inkscape:connector-curvature="0" sodipodi:nodetypes="ccccsccssc" fill="#D40000" d="M2271.136,737.781
			c23.143,1.53,35.207-18.233,37.561-33.809c1.404-2.474,2.17-1.778,2.708,0.139c1.132,19.998,19.029,36.339,35.604,34.105
			c26.977-0.348,43.374-30.366,38.763-55.773c-5.631-31.037-22.346-49.726-35.005-68.971c-14.322-19.928-33.6-48.713-39.812-62.568
			c0,0-19.593,29.816-45.082,64.878c-17.044,23.445-30.684,48.853-31.949,70.729c-1.455,24.989,8.807,47.391,37.212,51.263V737.781z
			"/>
		<path id="path8654" inkscape:connector-curvature="0" sodipodi:nodetypes="cccccccc" fill="#D40000" d="M2405.383,636.4
			c-5.131,11.249-5.693,30.469,9.623,33.068c11.539,1.487,16.233-3.884,17.163-12.121c0.462-2.404,1.822-2.556,2.252,0.189
			c0.665,8.452,9.028,13.387,15.57,12.147c17.903-3.062,16.854-22.77,11.008-36.137c-8.845-17.746-18.145-28.95-26.711-46.81
			c-9.837,18.594-21.073,33.701-28.911,49.662H2405.383z"/>
	</g>
</g>
</svg>
