<?xml version="1.0" encoding="utf-8"?>
<!-- Generator: Adobe Illustrator 16.0.0, SVG Export Plug-In . SVG Version: 6.00 Build 0)  -->
<!DOCTYPE svg PUBLIC "-//W3C//DTD SVG 1.1//EN" "http://www.w3.org/Graphics/SVG/1.1/DTD/svg11.dtd">
<svg version="1.1"
	 id="svg4423" xmlns:dc="http://purl.org/dc/elements/1.1/" xmlns:cc="http://creativecommons.org/ns#" xmlns:rdf="http://www.w3.org/1999/02/22-rdf-syntax-ns#" xmlns:svg="http://www.w3.org/2000/svg" xmlns:sodipodi="http://sodipodi.sourceforge.net/DTD/sodipodi-0.dtd" xmlns:inkscape="http://www.inkscape.org/namespaces/inkscape" inkscape:version="0.48.1 r9760" sodipodi:docname="5H.svg"
	 xmlns="http://www.w3.org/2000/svg" xmlns:xlink="http://www.w3.org/1999/xlink" x="0px" y="0px" width="744.094px"
	 height="1052.363px" viewBox="0 0 744.094 1052.363" enable-background="new 0 0 744.094 1052.363" xml:space="preserve">
<sodipodi:namedview  showgrid="false" inkscape:cy="514.96342" inkscape:cx="199.26695" inkscape:zoom="0.98994948" borderopacity="1.0" bordercolor="#666666" pagecolor="#ffffff" id="base" inkscape:window-maximized="0" inkscape:window-y="17" inkscape:window-x="578" inkscape:window-height="925" inkscape:current-layer="layer1" inkscape:pageshadow="2" inkscape:pageopacity="0.0" inkscape:window-width="735" inkscape:snap-page="true" inkscape:document-units="px" inkscape:snap-global="true" inkscape:snap-bbox="true">
	</sodipodi:namedview>
<g id="layer1" inkscape:label="5H" inkscape:groupmode="layer">
	<g id="g8939" transform="translate(-1983.3059,198.14981)">
		<g id="g8809">
			<g id="g8915" transform="translate(-4683.8753,2918.9368)">
				<path id="rect6355" fill="#FFFFFF" stroke="#000000" stroke-width="0.9967" d="M6712.127-3095.905h654.205
					c19.017,0,34.428,15.418,34.428,34.432v941.134c0,19.018-15.411,34.435-34.428,34.435h-654.205
					c-19.016,0-34.432-15.417-34.432-34.435v-941.134C6677.695-3080.487,6693.111-3095.905,6712.127-3095.905z"/>
				<g id="g8601" transform="matrix(0.30106207,0,0,0.30106207,5562.5812,-1947.8121)">
					<path id="path7106" inkscape:connector-curvature="0" sodipodi:nodetypes="cccssccccccccccc" fill="#D40000" d="
						M3791.929-3409.604l34.648-0.305c6.593,20.92,21.217,42.238,41.066,48.134c56.074,13.165,92.177-18.157,104.07-54.3
						c14.415-43.824-0.326-105.395-38.923-127.248c-32.014-18.146-79.562-2.848-101.375,35.911l-24.281-14.847l13.033-144.406
						h158.485v34.126h-128.442l-2.011,60.163c27.601-19.396,70.128-19.206,97.75-5.6c52.341,24.954,76.647,81.692,66.46,148.589
						c-14.099,66.529-45.162,104.218-115.311,109.638C3819.154-3319.077,3791.62-3372.662,3791.929-3409.604L3791.929-3409.604z"/>
					<path id="path7122" inkscape:connector-curvature="0" sodipodi:nodetypes="cccssccccccccccc" fill="#D40000" d="
						M6017.646-862.57l-34.633,0.315c-6.598-20.929-21.224-42.237-41.082-48.14c-56.064-13.157-92.164,18.155-104.059,54.297
						c-14.415,43.836,0.337,105.385,38.918,127.261c32.022,18.132,79.579,2.835,101.37-35.915l24.292,14.837l-13.03,144.404
						h-158.485v-34.124h128.435l2.018-60.161c-27.61,19.394-70.142,19.206-97.756,5.608c-52.344-24.964-76.636-81.7-66.464-148.589
						c14.097-66.529,45.156-104.227,115.321-109.648C5990.431-953.095,6017.96-899.512,6017.646-862.57L6017.646-862.57z"/>
				</g>
			</g>
		</g>
		<path id="path8640" inkscape:connector-curvature="0" sodipodi:nodetypes="cccccccc" fill="#D40000" d="M2024.629,19.316
			c-5.127-11.249-5.689-30.465,9.626-33.065c11.536-1.486,16.233,3.881,17.167,12.118c0.458,2.407,1.819,2.556,2.249-0.187
			c0.663-8.452,9.028-13.387,15.569-12.146c17.901,3.062,16.857,22.766,11.008,36.133c-8.846,17.749-18.141,28.95-26.707,46.812
			C2043.701,50.385,2032.463,35.277,2024.629,19.316L2024.629,19.316z"/>
		<path id="path8524" inkscape:connector-curvature="0" sodipodi:nodetypes="ccccsccssc" fill="#D40000" d="M2136.522-86.526
			c23.141-1.534,35.203,18.229,37.559,33.805c1.402,2.477,2.171,1.778,2.71-0.136c1.131-19.998,19.03-36.342,35.607-34.109
			c26.976,0.352,43.371,30.37,38.76,55.774c-5.632,31.038-22.35,49.726-35.009,68.971c-14.32,19.928-33.598,48.717-39.809,62.572
			c0,0-19.59-29.816-45.079-64.881c-17.043-23.446-30.685-48.853-31.955-70.727C2097.856-60.249,2108.116-82.651,2136.522-86.526
			L2136.522-86.526z"/>
		<path id="path8526" inkscape:connector-curvature="0" sodipodi:nodetypes="ccccsccssc" fill="#D40000" d="M2495.036-86.526
			c23.136-1.534,35.2,18.229,37.554,33.805c1.404,2.477,2.177,1.778,2.714-0.136c1.133-19.998,19.03-36.342,35.605-34.109
			c26.976,0.352,43.374,30.37,38.762,55.774c-5.63,31.038-22.351,49.726-35.01,68.971c-14.317,19.928-33.601,48.717-39.807,62.572
			c0,0-19.593-29.816-45.082-64.881c-17.043-23.446-30.683-48.853-31.954-70.727C2456.369-60.249,2466.63-82.651,2495.036-86.526
			L2495.036-86.526z"/>
		<path id="path8528" inkscape:connector-curvature="0" sodipodi:nodetypes="ccccsccssc" fill="#D40000" d="M2316.324,234.917
			c23.141-1.538,35.205,18.226,37.559,33.805c1.404,2.474,2.173,1.778,2.711-0.139c1.134-19.998,19.031-36.342,35.606-34.106
			c26.976,0.348,43.368,30.367,38.762,55.774c-5.63,31.034-22.351,49.724-35.01,68.969c-14.323,19.929-33.6,48.714-39.808,62.568
			c0,0-19.593-29.81-45.081-64.877c-17.043-23.446-30.685-48.852-31.953-70.728C2277.658,261.194,2287.917,238.792,2316.324,234.917
			L2316.324,234.917z"/>
		<path id="path8588" inkscape:connector-curvature="0" sodipodi:nodetypes="ccccsccssc" fill="#D40000" d="M2136.522,736.687
			c23.141,1.53,35.203-18.233,37.559-33.809c1.402-2.474,2.171-1.778,2.71,0.14c1.131,19.997,19.03,36.338,35.607,34.105
			c26.976-0.348,43.371-30.367,38.76-55.773c-5.632-31.038-22.35-49.727-35.009-68.972c-14.32-19.928-33.598-48.713-39.809-62.568
			c0,0-19.59,29.816-45.079,64.878c-17.043,23.445-30.685,48.853-31.955,70.729C2097.856,710.406,2108.116,732.809,2136.522,736.687
			L2136.522,736.687z"/>
		<path id="path8590" inkscape:connector-curvature="0" sodipodi:nodetypes="ccccsccssc" fill="#D40000" d="M2495.036,736.687
			c23.136,1.53,35.2-18.233,37.554-33.809c1.404-2.474,2.177-1.778,2.714,0.14c1.133,19.997,19.03,36.338,35.605,34.105
			c26.976-0.348,43.374-30.367,38.762-55.773c-5.63-31.038-22.351-49.727-35.01-68.972c-14.317-19.928-33.601-48.713-39.807-62.568
			c0,0-19.593,29.816-45.082,64.878c-17.043,23.445-30.683,48.853-31.954,70.729C2456.369,710.406,2466.63,732.809,2495.036,736.687
			L2495.036,736.687z"/>
		<path id="path8656" inkscape:connector-curvature="0" sodipodi:nodetypes="cccccccc" fill="#D40000" d="M2629.403,637.526
			c-5.131,11.249-5.694,30.469,9.622,33.068c11.54,1.48,16.234-3.884,17.17-12.121c0.456-2.41,1.816-2.556,2.246,0.189
			c0.664,8.452,9.028,13.387,15.569,12.147c17.904-3.062,16.86-22.77,11.008-36.137c-8.844-17.746-18.138-28.95-26.703-46.81
			C2648.47,606.457,2637.235,621.565,2629.403,637.526L2629.403,637.526z"/>
	</g>
</g>
</svg>
