<?xml version="1.0" encoding="utf-8"?>
<!-- Generator: Adobe Illustrator 16.0.0, SVG Export Plug-In . SVG Version: 6.00 Build 0)  -->
<!DOCTYPE svg PUBLIC "-//W3C//DTD SVG 1.1//EN" "http://www.w3.org/Graphics/SVG/1.1/DTD/svg11.dtd">
<svg version="1.1"
	 id="svg4423" xmlns:dc="http://purl.org/dc/elements/1.1/" xmlns:cc="http://creativecommons.org/ns#" xmlns:rdf="http://www.w3.org/1999/02/22-rdf-syntax-ns#" xmlns:svg="http://www.w3.org/2000/svg" xmlns:sodipodi="http://sodipodi.sourceforge.net/DTD/sodipodi-0.dtd" xmlns:inkscape="http://www.inkscape.org/namespaces/inkscape" inkscape:version="0.48.1 r9760" sodipodi:docname="6H.svg"
	 xmlns="http://www.w3.org/2000/svg" xmlns:xlink="http://www.w3.org/1999/xlink" x="0px" y="0px" width="744.094px"
	 height="1052.363px" viewBox="0 0 744.094 1052.363" enable-background="new 0 0 744.094 1052.363" xml:space="preserve">
<sodipodi:namedview  showgrid="false" inkscape:cy="601.70801" inkscape:cx="40.510903" inkscape:zoom="0.49497474" borderopacity="1.0" bordercolor="#666666" pagecolor="#ffffff" id="base" inkscape:window-maximized="0" inkscape:window-y="41" inkscape:window-x="1105" inkscape:window-height="925" inkscape:current-layer="layer1" inkscape:pageshadow="2" inkscape:pageopacity="0.0" inkscape:window-width="735" inkscape:snap-page="true" inkscape:document-units="px" inkscape:snap-global="true" inkscape:snap-bbox="true">
	</sodipodi:namedview>
<g id="layer1" inkscape:label="6h" inkscape:groupmode="layer">
	<g id="g8954" transform="translate(-2206.5344,198.14981)">
		<g id="g8823">
			<g id="g8929" transform="translate(-4683.8753,2918.9368)">
				<path id="rect6357" fill="#FFFFFF" stroke="#000000" stroke-width="0.9967" d="M6935.355-3095.905h654.205
					c19.017,0,34.428,15.418,34.428,34.432v941.134c0,19.018-15.411,34.435-34.428,34.435h-654.205
					c-19.016,0-34.432-15.417-34.432-34.435v-941.134C6900.924-3080.487,6916.34-3095.905,6935.355-3095.905z"/>
				<g id="g8673" transform="matrix(0.30106207,0,0,0.30106207,6829.277,-2295.2794)">
					<path id="path7108" inkscape:connector-curvature="0" sodipodi:nodetypes="cssccacccccszsss" fill="#D40000" d="
						M326.631-2272.002c-4.397-29.557-4.324-105.93-0.709-128.489c11.069-69.168,37.999-100.804,83.088-111.174
						c43.772-10.065,105.316,1.145,118.823,58.987l-36.654,0.671c-19.795-39.085-69.88-28.642-98.076-11.642
						c-22.516,13.585-32.692,70.144-28.337,73.633c-0.031,0,42.574-30.965,76.127-28.675
						c71.746,7.334,101.323,68.379,98.823,126.083c-2.264,69.387-24.691,124.832-100.714,128.53
						C366.72-2166.808,333.566-2205.506,326.631-2272.002z M504.913-2290.349c0.399-48.152-21.882-84.17-64.013-88.142
						c-42.128-3.982-84.601,36.385-81.659,85.453c2.952,49.246,22.364,90.717,73.443,90.485
						C487.617-2202.794,504.627-2256.085,504.913-2290.349L504.913-2290.349z"/>
					<path id="path7161" inkscape:connector-curvature="0" sodipodi:nodetypes="cssccacccccszsss" fill="#D40000" d="
						M2551.039,308.106c4.392,29.567,4.327,105.93,0.714,128.5c-11.074,69.156-37.994,100.802-83.088,111.162
						c-43.771,10.065-105.321-1.135-118.811-58.987l36.647-0.671c19.793,39.106,69.87,28.642,98.071,11.642
						c22.528-13.575,32.697-70.142,28.347-73.61c0.023,0-42.574,30.952-76.134,28.662c-71.738-7.334-101.327-68.378-98.826-126.08
						c2.271-69.39,24.691-124.822,100.718-128.542C2510.966,202.912,2544.104,241.619,2551.039,308.106L2551.039,308.106z
						 M2372.757,326.452c-0.399,48.163,21.876,84.181,64.009,88.151c42.133,3.974,84.622-36.395,81.68-85.462
						c-2.965-49.237-22.378-90.717-73.464-90.484C2390.053,238.91,2373.052,292.198,2372.757,326.452L2372.757,326.452z"/>
				</g>
			</g>
		</g>
		<path id="path8642" inkscape:connector-curvature="0" sodipodi:nodetypes="cccccccc" fill="#D40000" d="M2245.07,15.352
			c-5.128-11.248-5.689-30.465,9.624-33.065c11.538-1.483,16.233,3.881,17.167,12.122c0.46,2.407,1.819,2.553,2.251-0.19
			c0.663-8.452,9.028-13.387,15.567-12.147c17.902,3.062,16.857,22.766,11.008,36.134c-8.845,17.749-18.141,28.95-26.707,46.812
			c-9.841-18.597-21.077-33.704-28.912-49.666H2245.07z"/>
		<path id="path8530" inkscape:connector-curvature="0" sodipodi:nodetypes="ccccsccssc" fill="#D40000" d="M2359.371-85.096
			c23.142-1.537,35.205,18.227,37.56,33.805c1.403,2.474,2.172,1.778,2.711-0.139c1.131-19.998,19.03-36.342,35.605-34.109
			c26.976,0.351,43.371,30.37,38.762,55.777c-5.632,31.035-22.35,49.723-35.009,68.971c-14.321,19.928-33.598,48.713-39.809,62.569
			c0,0-19.591-29.813-45.081-64.878c-17.043-23.446-30.683-48.855-31.953-70.729C2320.707-58.819,2330.965-81.224,2359.371-85.096
			L2359.371-85.096z"/>
		<path id="path8532" inkscape:connector-curvature="0" sodipodi:nodetypes="ccccsccssc" fill="#D40000" d="M2720.643-85.096
			c23.142-1.537,35.2,18.227,37.56,33.805c1.398,2.474,2.17,1.778,2.708-0.139c1.133-19.998,19.03-36.342,35.605-34.109
			c26.976,0.351,43.374,30.37,38.762,55.777c-5.63,31.035-22.352,49.723-35.011,68.971c-14.316,19.928-33.593,48.713-39.806,62.569
			c0,0-19.593-29.813-45.082-64.878c-17.043-23.446-30.683-48.855-31.955-70.729C2681.976-58.819,2692.238-81.224,2720.643-85.096
			L2720.643-85.096z"/>
		<path id="path8534" inkscape:connector-curvature="0" sodipodi:nodetypes="ccccsccssc" fill="#D40000" d="M2720.643,235.233
			c23.142-1.537,35.2,18.227,37.56,33.805c1.398,2.474,2.17,1.778,2.708-0.136c1.133-20.001,19.03-36.345,35.605-34.109
			c26.976,0.348,43.374,30.367,38.762,55.774c-5.63,31.034-22.352,49.724-35.011,68.969c-14.316,19.929-33.593,48.714-39.806,62.568
			c0,0-19.593-29.81-45.082-64.877c-17.043-23.446-30.683-48.852-31.955-70.729C2681.976,261.51,2692.238,239.108,2720.643,235.233
			L2720.643,235.233z"/>
		<path id="path8536" inkscape:connector-curvature="0" sodipodi:nodetypes="ccccsccssc" fill="#D40000" d="M2359.371,235.233
			c23.142-1.537,35.205,18.227,37.56,33.805c1.403,2.474,2.172,1.778,2.711-0.136c1.131-20.001,19.03-36.345,35.605-34.109
			c26.976,0.348,43.371,30.367,38.762,55.774c-5.632,31.034-22.35,49.724-35.009,68.969c-14.321,19.929-33.598,48.714-39.809,62.568
			c0,0-19.591-29.81-45.081-64.877c-17.043-23.446-30.683-48.852-31.953-70.729C2320.707,261.51,2330.965,239.108,2359.371,235.233
			L2359.371,235.233z"/>
		<path id="path8592" inkscape:connector-curvature="0" sodipodi:nodetypes="ccccsccssc" fill="#D40000" d="M2359.371,740.836
			c23.142,1.538,35.205-18.226,37.56-33.808c1.403-2.474,2.172-1.778,2.711,0.139c1.131,19.998,19.03,36.346,35.605,34.106
			c26.976-0.349,43.371-30.367,38.762-55.774c-5.632-31.031-22.35-49.72-35.009-68.971c-14.321-19.928-33.598-48.714-39.809-62.568
			c0,0-19.591,29.816-45.081,64.878c-17.043,23.445-30.683,48.853-31.953,70.729
			C2320.707,714.557,2330.965,736.958,2359.371,740.836L2359.371,740.836z"/>
		<path id="path8594" inkscape:connector-curvature="0" sodipodi:nodetypes="ccccsccssc" fill="#D40000" d="M2720.643,740.836
			c23.142,1.538,35.2-18.226,37.56-33.808c1.398-2.474,2.17-1.778,2.708,0.139c1.133,19.998,19.03,36.346,35.605,34.106
			c26.976-0.349,43.374-30.367,38.762-55.774c-5.63-31.031-22.352-49.72-35.011-68.971c-14.316-19.928-33.593-48.714-39.806-62.568
			c0,0-19.593,29.816-45.082,64.878c-17.043,23.445-30.683,48.853-31.955,70.729
			C2681.976,714.557,2692.238,736.958,2720.643,740.836L2720.643,740.836z"/>
		<path id="path8658" inkscape:connector-curvature="0" sodipodi:nodetypes="cccccccc" fill="#D40000" d="M2856.667,633.566
			c-5.131,11.249-5.688,30.462,9.623,33.062c11.539,1.487,16.233-3.878,17.17-12.114c0.455-2.411,1.815-2.557,2.245,0.183
			c0.665,8.453,9.028,13.387,15.569,12.147c17.904-3.062,16.86-22.763,11.008-36.131c-8.844-17.752-18.138-28.949-26.703-46.815
			C2875.736,602.496,2864.5,617.604,2856.667,633.566L2856.667,633.566z"/>
	</g>
</g>
</svg>
