<?xml version="1.0" encoding="utf-8"?>
<!-- Generator: Adobe Illustrator 16.0.0, SVG Export Plug-In . SVG Version: 6.00 Build 0)  -->
<!DOCTYPE svg PUBLIC "-//W3C//DTD SVG 1.1//EN" "http://www.w3.org/Graphics/SVG/1.1/DTD/svg11.dtd">
<svg version="1.1"
	 id="svg4423" xmlns:dc="http://purl.org/dc/elements/1.1/" xmlns:cc="http://creativecommons.org/ns#" xmlns:rdf="http://www.w3.org/1999/02/22-rdf-syntax-ns#" xmlns:svg="http://www.w3.org/2000/svg" xmlns:sodipodi="http://sodipodi.sourceforge.net/DTD/sodipodi-0.dtd" xmlns:inkscape="http://www.inkscape.org/namespaces/inkscape" inkscape:version="0.48.1 r9760" sodipodi:docname="7H.svg"
	 xmlns="http://www.w3.org/2000/svg" xmlns:xlink="http://www.w3.org/1999/xlink" x="0px" y="0px" width="744.094px"
	 height="1052.363px" viewBox="0 0 744.094 1052.363" enable-background="new 0 0 744.094 1052.363" xml:space="preserve">
<sodipodi:namedview  showgrid="false" inkscape:cy="490.34926" inkscape:cx="133.5404" inkscape:zoom="0.69999999" borderopacity="1.0" bordercolor="#666666" pagecolor="#ffffff" id="base" inkscape:window-maximized="0" inkscape:window-y="29" inkscape:window-x="29" inkscape:window-height="925" inkscape:current-layer="layer1" inkscape:pageshadow="2" inkscape:pageopacity="0.0" inkscape:window-width="735" inkscape:snap-page="true" inkscape:document-units="px" inkscape:snap-global="true" inkscape:snap-bbox="true">
	</sodipodi:namedview>
<g id="layer1" inkscape:label="7H" inkscape:groupmode="layer">
	<g id="g9031" transform="translate(-1090.3923,-113.66123)">
		<g id="g8838">
			<g id="g8853" transform="translate(-4683.8753,2918.9368)">
				<path id="rect6359" fill="#FFFFFF" stroke="#000000" stroke-width="0.99" stroke-miterlimit="3.8" d="M5819.21-2784.095h654.208
					c19.018,0,34.435,15.415,34.435,34.432v941.139c0,19.018-15.417,34.429-34.435,34.429H5819.21
					c-19.016,0-34.432-15.411-34.432-34.429v-941.139C5784.779-2768.681,5800.195-2784.095,5819.21-2784.095z"/>
				<g id="g8660" transform="matrix(0.30106207,0,0,0.30106207,5449.5822,-1980.8821)">
					<path id="path7110" inkscape:connector-curvature="0" sodipodi:nodetypes="cccccccccc" fill="#D40000" d="M1246.172-2167.519
						c22.936-119.317,47.433-208.846,111.678-306.078h-130.558v41.86h-34.705v-78.876h191.02l23.546,37.016
						c-68.225,73.128-130.699,309.524-119.637,306.078H1246.172z"/>
					<path id="path7126" inkscape:connector-curvature="0" sodipodi:nodetypes="cccccccccc" fill="#D40000" d="M3382.32,186.455
						c-22.949,119.317-47.43,208.838-111.691,306.068h130.56v-41.838h34.714v78.865H3244.89l-23.559-37.027
						c68.232-73.13,130.706-309.513,119.632-306.068H3382.32z"/>
				</g>
			</g>
		</g>
		<path id="path8632" inkscape:connector-curvature="0" sodipodi:nodetypes="cccccccc" fill="#D40000" d="M1129.498,335.54
			c-5.128-11.246-5.689-30.465,9.624-33.065c11.538-1.483,16.233,3.881,17.168,12.121c0.46,2.407,1.819,2.556,2.249-0.189
			c0.663-8.452,9.029-13.384,15.569-12.147c17.901,3.062,16.857,22.769,11.008,36.137c-8.846,17.749-18.142,28.95-26.708,46.81
			c-9.841-18.593-21.077-33.701-28.91-49.666H1129.498z"/>
		<path id="path8538" inkscape:connector-curvature="0" sodipodi:nodetypes="ccccsccssc" fill="#D40000" d="M1240.792,231.393
			c23.141-1.538,35.204,18.227,37.559,33.806c1.403,2.474,2.172,1.777,2.711-0.14c1.131-19.998,19.03-36.342,35.607-34.106
			c26.976,0.348,43.371,30.367,38.761,55.774c-5.632,31.035-22.35,49.723-35.009,68.971c-14.32,19.928-33.598,48.714-39.809,62.568
			c0,0-19.59-29.813-45.079-64.878c-17.043-23.446-30.685-48.853-31.955-70.729C1202.127,257.67,1212.387,235.265,1240.792,231.393
			L1240.792,231.393z"/>
		<path id="path8540" inkscape:connector-curvature="0" sodipodi:nodetypes="ccccsccssc" fill="#D40000" d="M1602.064,231.393
			c23.143-1.538,35.207,18.227,37.561,33.806c1.404,2.474,2.17,1.777,2.707-0.14c1.133-19.998,19.03-36.342,35.605-34.106
			c26.977,0.348,43.374,30.367,38.763,55.774c-5.631,31.035-22.346,49.723-35.005,68.971c-14.323,19.928-33.6,48.714-39.812,62.568
			c0,0-19.593-29.813-45.075-64.878c-17.051-23.446-30.69-48.853-31.955-70.729C1563.397,257.67,1573.658,235.265,1602.064,231.393
			L1602.064,231.393z"/>
		<path id="path8542" inkscape:connector-curvature="0" sodipodi:nodetypes="ccccsccssc" fill="#D40000" d="M1423.589,393.753
			c23.143-1.538,35.206,18.227,37.561,33.805c1.403,2.474,2.172,1.778,2.711-0.136c1.131-20.001,19.028-36.346,35.606-34.109
			c26.977,0.351,43.368,30.367,38.763,55.774c-5.634,31.035-22.352,49.723-35.011,68.972c-14.323,19.928-33.6,48.714-39.81,62.568
			c0,0-19.591-29.813-45.081-64.878c-17.043-23.446-30.683-48.853-31.954-70.727
			C1384.925,420.029,1395.184,397.628,1423.589,393.753L1423.589,393.753z"/>
		<path id="path8544" inkscape:connector-curvature="0" sodipodi:nodetypes="ccccsccssc" fill="#D40000" d="M1240.792,556.112
			c23.141-1.538,35.204,18.229,37.559,33.805c1.403,2.474,2.172,1.778,2.711-0.136c1.131-20.001,19.03-36.345,35.607-34.109
			c26.976,0.351,43.371,30.367,38.761,55.774c-5.632,31.036-22.35,49.725-35.009,68.97c-14.32,19.929-33.598,48.714-39.809,62.569
			c0,0-19.59-29.811-45.079-64.879c-17.043-23.445-30.685-48.851-31.955-70.725C1202.127,582.389,1212.387,559.987,1240.792,556.112
			L1240.792,556.112z"/>
		<path id="path8546" inkscape:connector-curvature="0" sodipodi:nodetypes="ccccsccssc" fill="#D40000" d="M1602.064,556.112
			c23.143-1.538,35.207,18.229,37.561,33.805c1.404,2.474,2.17,1.778,2.707-0.136c1.133-20.001,19.03-36.345,35.605-34.109
			c26.977,0.351,43.374,30.367,38.763,55.774c-5.631,31.036-22.346,49.725-35.005,68.97c-14.323,19.929-33.6,48.714-39.812,62.569
			c0,0-19.593-29.811-45.075-64.879c-17.051-23.445-30.69-48.851-31.955-70.725C1563.397,582.389,1573.658,559.987,1602.064,556.112
			L1602.064,556.112z"/>
		<path id="path8666" inkscape:connector-curvature="0" sodipodi:nodetypes="cccccccc" fill="#D40000" d="M1741.101,953.757
			c-5.131,11.248-5.694,30.468,9.622,33.068c11.54,1.48,16.234-3.885,17.17-12.122c0.456-2.41,1.816-2.556,2.246,0.19
			c0.664,8.452,9.028,13.38,15.569,12.146c17.904-3.062,16.86-22.769,11.008-36.137c-8.844-17.752-18.138-28.95-26.704-46.81
			C1760.168,922.688,1748.933,937.796,1741.101,953.757L1741.101,953.757z"/>
		<path id="path8620" inkscape:connector-curvature="0" sodipodi:nodetypes="ccccsccssc" fill="#D40000" d="M1602.064,1061.718
			c23.143,1.537,35.207-18.227,37.561-33.809c1.404-2.474,2.17-1.771,2.707,0.139c1.133,19.998,19.03,36.346,35.605,34.112
			c26.977-0.354,43.374-30.373,38.763-55.773c-5.631-31.038-22.346-49.727-35.005-68.978c-14.323-19.929-33.6-48.714-39.812-62.569
			c0,0-19.593,29.816-45.075,64.878c-17.051,23.452-30.69,48.859-31.955,70.73
			C1563.397,1035.438,1573.658,1057.846,1602.064,1061.718L1602.064,1061.718z"/>
		<path id="path8622" inkscape:connector-curvature="0" sodipodi:nodetypes="ccccsccssc" fill="#D40000" d="M1240.792,1061.718
			c23.141,1.537,35.204-18.227,37.559-33.809c1.403-2.474,2.172-1.771,2.711,0.139c1.131,19.998,19.03,36.346,35.607,34.112
			c26.976-0.354,43.371-30.373,38.761-55.773c-5.632-31.038-22.35-49.727-35.009-68.978c-14.32-19.929-33.598-48.714-39.809-62.569
			c0,0-19.59,29.816-45.079,64.878c-17.043,23.452-30.685,48.859-31.955,70.73
			C1202.127,1035.438,1212.387,1057.846,1240.792,1061.718L1240.792,1061.718z"/>
	</g>
</g>
</svg>
