<?xml version="1.0" encoding="utf-8"?>
<!-- Generator: Adobe Illustrator 16.0.0, SVG Export Plug-In . SVG Version: 6.00 Build 0)  -->
<!DOCTYPE svg PUBLIC "-//W3C//DTD SVG 1.1//EN" "http://www.w3.org/Graphics/SVG/1.1/DTD/svg11.dtd">
<svg version="1.1"
	 id="svg4423" xmlns:dc="http://purl.org/dc/elements/1.1/" xmlns:cc="http://creativecommons.org/ns#" xmlns:rdf="http://www.w3.org/1999/02/22-rdf-syntax-ns#" xmlns:svg="http://www.w3.org/2000/svg" xmlns:sodipodi="http://sodipodi.sourceforge.net/DTD/sodipodi-0.dtd" xmlns:inkscape="http://www.inkscape.org/namespaces/inkscape" inkscape:version="0.48.1 r9760" sodipodi:docname="8H.svg"
	 xmlns="http://www.w3.org/2000/svg" xmlns:xlink="http://www.w3.org/1999/xlink" x="0px" y="0px" width="744.094px"
	 height="1052.363px" viewBox="0 0 744.094 1052.363" enable-background="new 0 0 744.094 1052.363" xml:space="preserve">
<sodipodi:namedview  showgrid="false" inkscape:cy="375.39925" inkscape:cx="187.31121" inkscape:zoom="0.98994948" borderopacity="1.0" bordercolor="#666666" pagecolor="#ffffff" id="base" inkscape:window-maximized="0" inkscape:window-y="66" inkscape:window-x="803" inkscape:window-height="925" inkscape:current-layer="layer1" inkscape:pageshadow="2" inkscape:pageopacity="0.0" inkscape:window-width="735" inkscape:snap-page="true" inkscape:document-units="px" inkscape:snap-global="true" inkscape:snap-bbox="true">
	</sodipodi:namedview>
<g id="layer1" inkscape:label="8H" inkscape:groupmode="layer">
	<g id="g9013" transform="translate(-1313.6208,-113.66123)">
		<g id="g8854">
			<g id="g8836" transform="translate(-4683.8753,2918.9368)">
				<path id="rect6361" fill="#FFFFFF" stroke="#000000" stroke-width="0.9967" d="M6042.439-2784.095h654.208
					c19.018,0,34.435,15.415,34.435,34.432v941.139c0,19.018-15.417,34.429-34.435,34.429h-654.208
					c-19.016,0-34.432-15.411-34.432-34.429v-941.139C6008.007-2768.681,6023.423-2784.095,6042.439-2784.095z"/>
				<g id="g8646" transform="matrix(0.30106207,0,0,0.30106207,5370.0941,-1979.9322)">
					<path id="path7112" inkscape:connector-curvature="0" sodipodi:nodetypes="zcszsczzzssssssssss" fill="#D40000" d="
						M2192.51-2267.076c1.722-47.081,19.054-64.755,53.191-89.404c-27.228-19.321-38.708-47.731-36.39-71.951
						c5.61-58.607,51.752-87.923,102.054-86.651c50.296,1.283,93.653,40.495,97.031,83.09c2.942,37.037-8.291,54.889-35.047,74.4
						c31.774,26.268,52.078,43.572,51.306,89.939c-0.767,46.377-40.945,101.571-110.974,103.262s-122.889-55.614-121.166-102.685
						H2192.51z M2388.033-2266.928c3.004-42.627-35.383-71.385-78.686-71.835c-42.201-0.431-79.953,34.935-79.958,73.201
						c0,41.114,49.099,63.441,80.808,63.567C2348.742-2201.859,2385.443-2230.206,2388.033-2266.928L2388.033-2266.928z
						 M2374.174-2419.416c0.835-35.913-32.893-61.644-67.659-60.614c-30.939,0.924-63.704,24.114-63.725,54.131
						c-0.032,37.553,37.252,56.297,69.041,57C2340.673-2368.257,2373.539-2392.297,2374.174-2419.416z"/>
					<path id="path7128" inkscape:connector-curvature="0" sodipodi:nodetypes="zcszsczzzssssssssss" fill="#D40000" d="
						M4446.988,279.713c-1.723,47.07-19.057,64.745-53.207,89.394c27.234,19.31,38.708,47.741,36.398,71.949
						c-5.612,58.608-51.757,87.924-102.044,86.64c-50.307-1.259-93.659-40.491-97.042-83.065c-2.942-37.05,8.3-54.91,35.052-74.411
						c-31.772-26.268-52.072-43.563-51.316-89.939c0.778-46.379,40.955-101.561,110.975-103.264
						c70.038-1.7,122.889,55.604,121.166,102.696H4446.988z M4251.456,279.544c-3.003,42.639,35.386,71.404,78.696,71.845
						c42.198,0.441,79.935-34.925,79.958-73.211c0-41.105-49.11-63.441-80.817-63.545
						C4290.751,214.485,4254.042,242.832,4251.456,279.544L4251.456,279.544z M4265.326,432.041
						c-0.843,35.914,32.885,61.654,67.642,60.606c30.955-0.924,63.713-24.104,63.736-54.112
						c0.02-37.553-37.258-56.295-69.053-57.012C4298.821,380.872,4265.956,404.914,4265.326,432.041z"/>
				</g>
			</g>
		</g>
		<path id="path8634" inkscape:connector-curvature="0" sodipodi:nodetypes="cccccccc" fill="#D40000" d="M1355.168,338.617
			c-5.127-11.249-5.689-30.465,9.624-33.065c11.538-1.483,16.234,3.881,17.168,12.122c0.46,2.407,1.819,2.553,2.249-0.19
			c0.663-8.452,9.029-13.387,15.569-12.147c17.901,3.062,16.857,22.766,11.008,36.134c-8.846,17.749-18.141,28.95-26.707,46.813
			c-9.841-18.597-21.077-33.705-28.911-49.666H1355.168z"/>
		<path id="path8548" inkscape:connector-curvature="0" sodipodi:nodetypes="ccccsccssc" fill="#D40000" d="M1468.469,224.361
			c23.142-1.534,35.205,18.23,37.56,33.806c1.403,2.477,2.172,1.778,2.711-0.136c1.131-19.998,19.028-36.343,35.605-34.109
			c26.976,0.351,43.371,30.37,38.762,55.774c-5.632,31.037-22.35,49.726-35.009,68.971c-14.321,19.929-33.598,48.717-39.809,62.572
			c0,0-19.591-29.817-45.081-64.881c-17.043-23.446-30.683-48.853-31.953-70.727
			C1429.804,250.638,1440.063,228.236,1468.469,224.361L1468.469,224.361z"/>
		<path id="path8550" inkscape:connector-curvature="0" sodipodi:nodetypes="ccccsccssc" fill="#D40000" d="M1823.262,224.361
			c23.142-1.534,35.206,18.23,37.56,33.806c1.404,2.477,2.17,1.778,2.708-0.136c1.133-19.998,19.03-36.343,35.611-34.109
			c26.977,0.351,43.368,30.37,38.756,55.774c-5.63,31.037-22.345,49.726-35.004,68.971c-14.323,19.929-33.6,48.717-39.812,62.572
			c0,0-19.587-29.817-45.076-64.881c-17.044-23.446-30.689-48.853-31.955-70.727
			C1784.594,250.638,1794.856,228.236,1823.262,224.361L1823.262,224.361z"/>
		<path id="path8552" inkscape:connector-curvature="0" sodipodi:nodetypes="ccccsccssc" fill="#D40000" d="M1643.978,386.724
			c23.139-1.538,35.204,18.227,37.557,33.805c1.404,2.474,2.173,1.775,2.711-0.139c1.132-19.998,19.028-36.343,35.606-34.109
			c26.977,0.351,43.371,30.37,38.76,55.774c-5.631,31.038-22.346,49.726-35.005,68.971c-14.323,19.932-33.6,48.717-39.811,62.572
			c0,0-19.592-29.813-45.079-64.878c-17.045-23.449-30.687-48.856-31.955-70.73C1605.31,413.001,1615.57,390.595,1643.978,386.724
			L1643.978,386.724z"/>
		<path id="path8554" inkscape:connector-curvature="0" sodipodi:nodetypes="ccccsccssc" fill="#D40000" d="M1468.469,549.083
			c23.142-1.538,35.205,18.227,37.56,33.805c1.403,2.474,2.172,1.778,2.711-0.139c1.131-19.998,19.028-36.342,35.605-34.106
			c26.976,0.348,43.371,30.367,38.762,55.774c-5.632,31.034-22.35,49.725-35.009,68.97c-14.321,19.928-33.598,48.714-39.809,62.568
			c0,0-19.591-29.811-45.081-64.878c-17.043-23.446-30.683-48.852-31.953-70.729C1429.804,575.36,1440.063,552.955,1468.469,549.083
			L1468.469,549.083z"/>
		<path id="path8556" inkscape:connector-curvature="0" sodipodi:nodetypes="ccccsccssc" fill="#D40000" d="M1823.262,549.083
			c23.142-1.538,35.206,18.227,37.56,33.805c1.404,2.474,2.17,1.778,2.708-0.139c1.133-19.998,19.03-36.342,35.611-34.106
			c26.977,0.348,43.368,30.367,38.756,55.774c-5.63,31.034-22.345,49.725-35.004,68.97c-14.323,19.928-33.6,48.714-39.812,62.568
			c0,0-19.587-29.811-45.076-64.878c-17.044-23.446-30.689-48.852-31.955-70.729C1784.594,575.36,1794.856,552.955,1823.262,549.083
			L1823.262,549.083z"/>
		<path id="path8614" inkscape:connector-curvature="0" sodipodi:nodetypes="ccccsccssc" fill="#D40000" d="M1823.262,1054.689
			c23.142,1.538,35.206-18.227,37.56-33.809c1.404-2.474,2.17-1.777,2.708,0.14c1.133,19.998,19.03,36.346,35.611,34.105
			c26.977-0.348,43.368-30.366,38.756-55.773c-5.63-31.031-22.345-49.72-35.004-68.972c-14.323-19.928-33.6-48.714-39.812-62.568
			c0,0-19.587,29.816-45.076,64.878c-17.044,23.445-30.689,48.853-31.955,70.729
			C1784.594,1028.41,1794.856,1050.811,1823.262,1054.689L1823.262,1054.689z"/>
		<path id="path8616" inkscape:connector-curvature="0" sodipodi:nodetypes="ccccsccssc" fill="#D40000" d="M1643.978,894.997
			c23.139,1.537,35.204-18.227,37.557-33.802c1.404-2.474,2.173-1.778,2.711,0.139c1.132,19.998,19.028,36.339,35.606,34.106
			c26.977-0.349,43.371-30.367,38.76-55.774c-5.631-31.038-22.346-49.726-35.005-68.972c-14.323-19.928-33.6-48.713-39.811-62.568
			c0,0-19.592,29.816-45.079,64.878c-17.045,23.446-30.687,48.853-31.955,70.729C1605.31,868.723,1615.57,891.125,1643.978,894.997
			L1643.978,894.997z"/>
		<path id="path8618" inkscape:connector-curvature="0" sodipodi:nodetypes="ccccsccssc" fill="#D40000" d="M1468.469,1054.689
			c23.142,1.538,35.205-18.227,37.56-33.809c1.403-2.474,2.172-1.777,2.711,0.14c1.131,19.998,19.028,36.346,35.605,34.105
			c26.976-0.348,43.371-30.366,38.762-55.773c-5.632-31.031-22.35-49.72-35.009-68.972c-14.321-19.928-33.598-48.714-39.809-62.568
			c0,0-19.591,29.816-45.081,64.878c-17.043,23.445-30.683,48.853-31.953,70.729
			C1429.804,1028.41,1440.063,1050.811,1468.469,1054.689L1468.469,1054.689z"/>
		<path id="path8664" inkscape:connector-curvature="0" sodipodi:nodetypes="cccccccc" fill="#D40000" d="M1966.771,956.832
			c-5.131,11.249-5.693,30.469,9.623,33.068c11.539,1.487,16.233-3.885,17.17-12.121c0.455-2.404,1.815-2.556,2.246,0.189
			c0.664,8.452,9.027,13.387,15.569,12.146c17.903-3.062,16.859-22.769,11.008-36.137c-8.845-17.745-18.138-28.949-26.704-46.81
			C1985.839,925.762,1974.603,940.87,1966.771,956.832L1966.771,956.832z"/>
	</g>
</g>
</svg>
