<?xml version="1.0" encoding="utf-8"?>
<!-- Generator: Adobe Illustrator 16.0.0, SVG Export Plug-In . SVG Version: 6.00 Build 0)  -->
<!DOCTYPE svg PUBLIC "-//W3C//DTD SVG 1.1//EN" "http://www.w3.org/Graphics/SVG/1.1/DTD/svg11.dtd">
<svg version="1.1"
	 id="svg4423" xmlns:dc="http://purl.org/dc/elements/1.1/" xmlns:cc="http://creativecommons.org/ns#" xmlns:rdf="http://www.w3.org/1999/02/22-rdf-syntax-ns#" xmlns:svg="http://www.w3.org/2000/svg" xmlns:sodipodi="http://sodipodi.sourceforge.net/DTD/sodipodi-0.dtd" xmlns:inkscape="http://www.inkscape.org/namespaces/inkscape" inkscape:version="0.48.1 r9760" sodipodi:docname="9H.svg"
	 xmlns="http://www.w3.org/2000/svg" xmlns:xlink="http://www.w3.org/1999/xlink" x="0px" y="0px" width="744.094px"
	 height="1052.363px" viewBox="0 0 744.094 1052.363" enable-background="new 0 0 744.094 1052.363" xml:space="preserve">
<sodipodi:namedview  showgrid="false" inkscape:cy="512.40065" inkscape:cx="195.21402" inkscape:zoom="0.98994948" borderopacity="1.0" bordercolor="#666666" pagecolor="#ffffff" id="base" inkscape:window-maximized="0" inkscape:window-y="63" inkscape:window-x="976" inkscape:window-height="925" inkscape:current-layer="layer1" inkscape:pageshadow="2" inkscape:pageopacity="0.0" inkscape:window-width="735" inkscape:snap-page="true" inkscape:document-units="px" inkscape:snap-global="true" inkscape:snap-bbox="true">
	</sodipodi:namedview>
<g id="layer1" inkscape:label="9H" inkscape:groupmode="layer">
	<g id="g8993" transform="translate(-1536.8493,-113.66123)">
		<g id="g8871">
			<g id="g8817" transform="translate(-4683.8753,2918.9368)">
				<path id="rect6363" fill="#FFFFFF" stroke="#000000" stroke-width="0.9967" d="M6265.667-2784.095h654.208
					c19.018,0,34.435,15.415,34.435,34.432v941.139c0,19.018-15.417,34.429-34.435,34.429h-654.208
					c-19.016,0-34.432-15.411-34.432-34.429v-941.139C6231.235-2768.681,6246.651-2784.095,6265.667-2784.095z"/>
				<g id="g8631" transform="matrix(0.30106207,0,0,0.30106207,5727.1309,-1950.5247)">
					<g id="g8685" transform="translate(-1267.7708,-112.90889)">
						<path id="path7114" inkscape:connector-curvature="0" sodipodi:nodetypes="ccsccccscccsssssss" fill="#D40000" d="
							M3031.231-2232.481l32.562-10.14c12.282,32.236,37.121,41.734,63.387,39.695c47.144-3.667,62.795-55.392,66.331-101.128
							c-18.371,19.091-45.985,28.788-69.498,27.842c-75.125-3.972-94.352-62.988-95.051-124.822
							c-2.091-52.146,19.879-89.898,57.547-107.202c19.921-8.784,65.569-8.784,85.631,1.607
							c46.072,23.84,63.126,65.079,60.031,163.435c0.047,80.955-17.479,175.234-105.843,177.261
							C3075.245-2159.007,3036.465-2197.997,3031.231-2232.481L3031.231-2232.481z M3159.126-2321.171
							c15.33-9.53,23.982-18.47,30.854-31.878c5.643-11.001,7.55-16.705,5.943-39.484c-4.146-58.692-35.498-91.968-80.962-85.359
							c-25.353,3.688-39.196,17.631-47.149,43.55c-14.694,47.871,3.928,103.903,38.823,116.816
							C3122.373-2311.704,3146.602-2313.396,3159.126-2321.171z"/>
						<path id="path7130" inkscape:connector-curvature="0" sodipodi:nodetypes="ccsccccscccsssssss" fill="#D40000" d="
							M5247.985,275.568l-32.57,10.127c-12.271-32.213-37.112-41.731-63.379-39.674c-47.154,3.659-62.789,55.393-66.341,101.12
							c18.389-19.08,46.002-28.788,69.516-27.844c75.125,3.974,94.351,63,95.045,124.822c2.082,52.136-19.878,89.9-57.537,107.192
							c-19.939,8.784-65.582,8.784-85.651-1.596c-46.064-23.851-63.104-65.079-60.015-163.445
							c-0.062-80.947,17.483-175.236,105.846-177.253C5203.961,202.081,5242.753,241.084,5247.985,275.568L5247.985,275.568z
							 M5120.098,364.267c-15.343,9.52-23.978,18.45-30.851,31.857c-5.651,11.012-7.564,16.728-5.946,39.505
							c4.139,58.692,35.493,91.956,80.944,85.359c25.366-3.698,39.213-17.63,47.157-43.563
							c14.71-47.868-3.932-103.913-38.814-116.813C5156.85,354.789,5132.622,356.469,5120.098,364.267L5120.098,364.267z"/>
					</g>
				</g>
			</g>
		</g>
		<path id="path8636" inkscape:connector-curvature="0" sodipodi:nodetypes="cccccccc" fill="#D40000" d="M1575.163,323.766
			c-5.127-11.249-5.69-30.465,9.624-33.065c11.538-1.487,16.234,3.881,17.167,12.121c0.46,2.404,1.819,2.553,2.25-0.189
			c0.661-8.452,9.028-13.387,15.57-12.147c17.9,3.062,16.855,22.766,11.008,36.134c-8.846,17.749-18.141,28.95-26.707,46.812
			C1594.234,354.835,1582.997,339.728,1575.163,323.766L1575.163,323.766z"/>
		<path id="path8558" inkscape:connector-curvature="0" sodipodi:nodetypes="ccccsccssc" fill="#D40000" d="M1692.642,227.727
			c23.139-1.538,35.204,18.227,37.557,33.805c1.404,2.474,2.173,1.778,2.71-0.139c1.133-19.998,19.03-36.342,35.607-34.106
			c26.976,0.348,43.371,30.367,38.761,55.774c-5.631,31.035-22.349,49.723-35.008,68.971c-14.32,19.928-33.598,48.714-39.81,62.569
			c0,0-19.591-29.813-45.079-64.878c-17.043-23.446-30.685-48.856-31.955-70.73C1653.976,254.004,1664.234,231.599,1692.642,227.727
			L1692.642,227.727z"/>
		<path id="path8560" inkscape:connector-curvature="0" sodipodi:nodetypes="ccccsccssc" fill="#D40000" d="M2047.432,227.727
			c23.142-1.538,35.206,18.227,37.56,33.805c1.405,2.474,2.177,1.778,2.715-0.139c1.126-19.998,19.029-36.342,35.605-34.106
			c26.976,0.348,43.367,30.367,38.762,55.774c-5.631,31.035-22.352,49.723-35.011,68.971c-14.323,19.928-33.6,48.714-39.806,62.569
			c0,0-19.594-29.813-45.083-64.878c-17.043-23.446-30.683-48.856-31.955-70.73C2008.771,254.004,2019.026,231.599,2047.432,227.727
			L2047.432,227.727z"/>
		<path id="path8562" inkscape:connector-curvature="0" sodipodi:nodetypes="ccccsccssc" fill="#D40000" d="M2047.432,439.341
			c23.142-1.534,35.206,18.23,37.56,33.805c1.405,2.477,2.177,1.778,2.715-0.136c1.126-19.998,19.029-36.342,35.605-34.109
			c26.976,0.352,43.367,30.371,38.762,55.774c-5.631,31.038-22.352,49.726-35.011,68.971c-14.323,19.928-33.6,48.717-39.806,62.572
			c0,0-19.594-29.816-45.083-64.881c-17.043-23.446-30.683-48.853-31.955-70.727
			C2008.771,465.618,2019.026,443.216,2047.432,439.341L2047.432,439.341z"/>
		<path id="path8564" inkscape:connector-curvature="0" sodipodi:nodetypes="ccccsccssc" fill="#D40000" d="M1869.864,546.73
			c23.141-1.538,35.205,18.227,37.559,33.805c1.404,2.474,2.173,1.778,2.711-0.139c1.134-19.998,19.031-36.343,35.606-34.106
			c26.977,0.348,43.368,30.367,38.763,55.774c-5.631,31.034-22.352,49.725-35.011,68.97c-14.32,19.928-33.6,48.714-39.808,62.568
			c0,0-19.591-29.811-45.081-64.878c-17.043-23.445-30.685-48.851-31.953-70.728C1831.198,573.006,1841.458,550.601,1869.864,546.73
			L1869.864,546.73z"/>
		<path id="path8566" inkscape:connector-curvature="0" sodipodi:nodetypes="ccccsccssc" fill="#D40000" d="M1692.642,439.341
			c23.139-1.534,35.204,18.23,37.557,33.805c1.404,2.477,2.173,1.778,2.71-0.136c1.133-19.998,19.03-36.342,35.607-34.109
			c26.976,0.352,43.371,30.371,38.761,55.774c-5.631,31.038-22.349,49.726-35.008,68.971c-14.32,19.928-33.598,48.717-39.81,62.572
			c0,0-19.591-29.816-45.079-64.881c-17.043-23.446-30.685-48.853-31.955-70.727
			C1653.976,465.618,1664.234,443.216,1692.642,439.341L1692.642,439.341z"/>
		<path id="path8606" inkscape:connector-curvature="0" sodipodi:nodetypes="ccccsccssc" fill="#D40000" d="M2047.432,842.259
			c23.142,1.537,35.206-18.227,37.56-33.802c1.405-2.475,2.177-1.778,2.715,0.133c1.126,20.004,19.029,36.345,35.605,34.111
			c26.976-0.354,43.367-30.366,38.762-55.773c-5.631-31.038-22.352-49.727-35.011-68.972c-14.323-19.928-33.6-48.714-39.806-62.568
			c0,0-19.594,29.811-45.083,64.878c-17.043,23.445-30.683,48.853-31.955,70.724
			C2008.771,815.986,2019.026,838.387,2047.432,842.259L2047.432,842.259z"/>
		<path id="path8608" inkscape:connector-curvature="0" sodipodi:nodetypes="ccccsccssc" fill="#D40000" d="M2047.432,1053.146
			c23.142,1.537,35.206-18.227,37.56-33.803c1.405-2.474,2.177-1.777,2.715,0.133c1.126,20.005,19.029,36.346,35.605,34.112
			c26.976-0.354,43.367-30.367,38.762-55.773c-5.631-31.038-22.352-49.727-35.011-68.972c-14.323-19.929-33.6-48.714-39.806-62.568
			c0,0-19.594,29.81-45.083,64.878c-17.043,23.445-30.683,48.853-31.955,70.724
			C2008.771,1026.872,2019.026,1049.274,2047.432,1053.146L2047.432,1053.146z"/>
		<path id="path8610" inkscape:connector-curvature="0" sodipodi:nodetypes="ccccsccssc" fill="#D40000" d="M1692.642,1053.146
			c23.139,1.537,35.204-18.227,37.557-33.803c1.404-2.474,2.173-1.777,2.71,0.133c1.133,20.005,19.03,36.346,35.607,34.112
			c26.976-0.354,43.371-30.367,38.761-55.773c-5.631-31.038-22.349-49.727-35.008-68.972c-14.32-19.929-33.598-48.714-39.81-62.568
			c0,0-19.591,29.81-45.079,64.878c-17.043,23.445-30.685,48.853-31.955,70.724
			C1653.976,1026.872,1664.234,1049.274,1692.642,1053.146L1692.642,1053.146z"/>
		<path id="path8612" inkscape:connector-curvature="0" sodipodi:nodetypes="ccccsccssc" fill="#D40000" d="M1692.642,842.259
			c23.139,1.537,35.204-18.227,37.557-33.802c1.404-2.475,2.173-1.778,2.71,0.133c1.133,20.004,19.03,36.345,35.607,34.111
			c26.976-0.354,43.371-30.366,38.761-55.773c-5.631-31.038-22.349-49.727-35.008-68.972c-14.32-19.928-33.598-48.714-39.81-62.568
			c0,0-19.591,29.811-45.079,64.878c-17.043,23.445-30.685,48.853-31.955,70.724
			C1653.976,815.986,1664.234,838.387,1692.642,842.259L1692.642,842.259z"/>
		<path id="path8662" inkscape:connector-curvature="0" sodipodi:nodetypes="cccccccc" fill="#D40000" d="M2186.766,941.983
			c-5.131,11.249-5.694,30.463,9.622,33.062c11.54,1.486,16.234-3.878,17.164-12.121c0.462-2.404,1.822-2.55,2.252,0.189
			c0.664,8.452,9.028,13.387,15.569,12.146c17.904-3.062,16.854-22.762,11.009-36.13c-8.845-17.752-18.139-28.95-26.704-46.816
			C2205.833,910.915,2194.598,926.022,2186.766,941.983L2186.766,941.983z"/>
	</g>
</g>
</svg>
