<?xml version="1.0" encoding="utf-8"?>
<!-- Generator: Adobe Illustrator 16.0.0, SVG Export Plug-In . SVG Version: 6.00 Build 0)  -->
<!DOCTYPE svg PUBLIC "-//W3C//DTD SVG 1.1//EN" "http://www.w3.org/Graphics/SVG/1.1/DTD/svg11.dtd">
<svg version="1.1"
	 id="svg4423" xmlns:dc="http://purl.org/dc/elements/1.1/" xmlns:cc="http://creativecommons.org/ns#" xmlns:rdf="http://www.w3.org/1999/02/22-rdf-syntax-ns#" xmlns:svg="http://www.w3.org/2000/svg" xmlns:sodipodi="http://sodipodi.sourceforge.net/DTD/sodipodi-0.dtd" xmlns:inkscape="http://www.inkscape.org/namespaces/inkscape" inkscape:version="0.48.1 r9760" sodipodi:docname="AH.svg"
	 xmlns="http://www.w3.org/2000/svg" xmlns:xlink="http://www.w3.org/1999/xlink" x="0px" y="0px" width="744.094px"
	 height="1052.363px" viewBox="0 0 744.094 1052.363" enable-background="new 0 0 744.094 1052.363" xml:space="preserve">
<sodipodi:namedview  showgrid="false" inkscape:cy="442.43337" inkscape:cx="238.22195" inkscape:zoom="0.98994948" borderopacity="1.0" bordercolor="#666666" pagecolor="#ffffff" id="base" inkscape:window-maximized="0" inkscape:window-y="63" inkscape:window-x="784" inkscape:window-height="925" inkscape:current-layer="layer1" inkscape:pageshadow="2" inkscape:pageopacity="0.0" inkscape:window-width="735" inkscape:snap-page="true" inkscape:document-units="px" inkscape:snap-global="true" inkscape:snap-bbox="true">
	</sodipodi:namedview>
<g id="layer1" inkscape:label="Layer 1" inkscape:groupmode="layer">
	<g id="g8889" transform="translate(-1090.3923,198.14981)">
		<g id="g8763">
			<g id="g8869" transform="translate(-4683.8753,2918.9368)">
				<path id="rect3232" fill="#FFFFFF" stroke="#000000" stroke-width="0.9967" d="M5819.213-3095.905h654.203
					c19.018,0,34.435,15.418,34.435,34.432v941.134c0,19.018-15.417,34.435-34.435,34.435h-654.203
					c-19.016,0-34.432-15.417-34.432-34.435v-941.134C5784.781-3080.487,5800.197-3095.905,5819.213-3095.905z"/>
				<g id="g8567" transform="matrix(0.30106207,0,0,0.30106207,5730.6419,-1948.1116)">
					<path id="path7183" inkscape:connector-curvature="0" sodipodi:nodetypes="ccccccccccccccccccccc" fill="#D40000" d="
						M257.673-3316.853v-29.451h28.631l60.94-314.932h34.679l67.165,314.932h23.11v29.451h-78.733v-29.451h21.266l-8.473-48.257
						h-79.465l-6.131,48.257h21.266v29.451H257.673z M399.458-3428.919l-34.52-168.604l-32.351,168.604H399.458z"/>
					<path id="path7186" inkscape:connector-curvature="0" sodipodi:nodetypes="ccccccccccccccccccccc" fill="#D40000" d="
						M2503.702-953.32v29.44h-28.619l-60.94,314.933h-34.695l-67.158-314.933h-23.115v-29.44h78.738v29.44h-21.266l8.466,48.267
						h79.475l6.137-48.267h-21.266v-29.44H2503.702z M2361.922-841.256l34.526,168.596l32.34-168.596H2361.922z"/>
				</g>
			</g>
		</g>
		<path id="path8626" inkscape:connector-curvature="0" sodipodi:nodetypes="cccccccc" fill="#D40000" d="M1127.73,19.824
			c-5.127-11.248-5.69-30.468,9.625-33.065c11.538-1.487,16.233,3.881,17.167,12.119c0.46,2.407,1.819,2.556,2.25-0.187
			c0.661-8.452,9.028-13.387,15.568-12.146c17.902,3.062,16.857,22.766,11.008,36.133c-8.844,17.749-18.141,28.95-26.705,46.812
			C1146.8,50.894,1135.564,35.786,1127.73,19.824L1127.73,19.824z"/>
		<path id="path8512" inkscape:connector-curvature="0" sodipodi:nodetypes="ccccsccssc" fill="#D40000" d="M1423.408,234.917
			c23.141-1.538,35.204,18.226,37.559,33.805c1.403,2.474,2.172,1.778,2.711-0.139c1.131-19.998,19.031-36.342,35.606-34.106
			c26.977,0.348,43.368,30.367,38.763,55.774c-5.634,31.034-22.352,49.724-35.011,68.969c-14.32,19.929-33.6,48.714-39.808,62.568
			c0,0-19.593-29.81-45.081-64.877c-17.043-23.446-30.685-48.852-31.955-70.728C1384.743,261.194,1395.001,238.792,1423.408,234.917
			L1423.408,234.917z"/>
		<path id="path8648" inkscape:connector-curvature="0" sodipodi:nodetypes="cccccccc" fill="#D40000" d="M1737.917,637.482
			c-5.131,11.249-5.688,30.468,9.623,33.068c11.539,1.487,16.233-3.885,17.17-12.121c0.462-2.404,1.815-2.556,2.246,0.189
			c0.664,8.452,9.033,13.387,15.568,12.146c17.904-3.062,16.86-22.769,11.009-36.136c-8.845-17.746-18.138-28.95-26.704-46.81
			C1756.985,606.412,1745.749,621.52,1737.917,637.482L1737.917,637.482z"/>
	</g>
</g>
</svg>
